<svg xmlns="http://www.w3.org/2000/svg" xmlns:xlink="http://www.w3.org/1999/xlink" version="1.1" viewBox="0 0 640 640"
	xml:space="preserve">
	<rect x="0" y="0" width="100%" height="100%" fill="rgba(255, 0, 0, 0)"></rect>
	<g transform="matrix(5.6 0 0 0.17 335.56 266.1)">
		<polygon
			style="stroke: #197278; stroke-width: 8; stroke-dasharray: none; stroke-linecap: butt; stroke-dashoffset: 0; stroke-linejoin: miter; stroke-miterlimit: 4; fill: #197278; fill-rule: nonzero; opacity: 1;"
			points="-50,-50 -50,50 50,50 50,-50 " />
	</g>
	<g transform="matrix(5.64 0 0 0.17 320.38 150.02)">
		<polygon
			style="stroke: #197278; stroke-width: 8; stroke-dasharray: none; stroke-linecap: butt; stroke-dashoffset: 0; stroke-linejoin: miter; stroke-miterlimit: 4; fill: #197278; fill-rule: nonzero; opacity: 1;"
			points="-50,-50 -50,50 50,50 50,-50 " />
	</g>
	<g transform="matrix(0 5.48 -0.17 0 392.86 309.05)">
		<polygon
			style="stroke: #197278; stroke-width: 8; stroke-dasharray: none; stroke-linecap: butt; stroke-dashoffset: 0; stroke-linejoin: miter; stroke-miterlimit: 4; fill: #197278; fill-rule: nonzero; opacity: 1;"
			points="-50,-50 -50,50 50,50 50,-50 " />
	</g>
	<g transform="matrix(0 5.48 -0.17 0 104.97 331.11)">
		<polygon
			style="stroke: #197278; stroke-width: 8; stroke-dasharray: none; stroke-linecap: butt; stroke-dashoffset: 0; stroke-linejoin: miter; stroke-miterlimit: 4; fill: #197278; fill-rule: nonzero; opacity: 1;"
			points="-50,-50 -50,50 50,50 50,-50 " />
	</g>
	<g transform="matrix(5.48 0 0 0.17 290.71 378.71)">
		<polygon
			style="stroke: #197278; stroke-width: 8; stroke-dasharray: none; stroke-linecap: butt; stroke-dashoffset: 0; stroke-linejoin: miter; stroke-miterlimit: 4; fill: #197278; fill-rule: nonzero; opacity: 1;"
			points="-50,-50 -50,50 50,50 50,-50 " />
	</g>
	<g transform="matrix(5.48 0 0 0.17 310.44 493.63)">
		<polygon
			style="stroke: #197278; stroke-width: 8; stroke-dasharray: none; stroke-linecap: butt; stroke-dashoffset: 0; stroke-linejoin: miter; stroke-miterlimit: 4; fill: #197278; fill-rule: nonzero; opacity: 1;"
			points="-50,-50 -50,50 50,50 50,-50 " />
	</g>
	<g transform="matrix(0 5.48 -0.17 0 251.24 317.18)">
		<polygon
			style="stroke: #197278; stroke-width: 8; stroke-dasharray: none; stroke-linecap: butt; stroke-dashoffset: 0; stroke-linejoin: miter; stroke-miterlimit: 4; fill: #197278; fill-rule: nonzero; opacity: 1;"
			points="-50,-50 -50,50 50,50 50,-50 " />
	</g>
	<g transform="matrix(0 5.48 -0.17 0 532.16 329.95)">
		<polygon
			style="stroke: #197278; stroke-width: 8; stroke-dasharray: none; stroke-linecap: butt; stroke-dashoffset: 0; stroke-linejoin: miter; stroke-miterlimit: 4; fill: #197278; fill-rule: nonzero; opacity: 1;"
			points="-50,-50 -50,50 50,50 50,-50 " />
	</g>
	<g transform="matrix(0.98 0 0 0.98 162.03 213.06)">
		<circle
			style="stroke: #c44536; stroke-width: 8; stroke-dasharray: none; stroke-linecap: butt; stroke-dashoffset: 0; stroke-linejoin: miter; stroke-miterlimit: 4; fill: #c44536; fill-rule: nonzero; opacity: 1;"
			cx="0" cy="0" r="40" />
	</g>
	<g transform="matrix(0.98 0 0 0.98 334.3 316.82)">
		<circle
			style="stroke: #c44536; stroke-width: 8; stroke-dasharray: none; stroke-linecap: butt; stroke-dashoffset: 0; stroke-linejoin: miter; stroke-miterlimit: 4; fill: #c44536; fill-rule: nonzero; opacity: 1;"
			cx="0" cy="0" r="40" />
	</g>
	<g transform="matrix(0.98 0 0 0.98 309.3 83.65)">
		<circle
			style="stroke: #c44536; stroke-width: 8; stroke-dasharray: none; stroke-linecap: butt; stroke-dashoffset: 0; stroke-linejoin: miter; stroke-miterlimit: 4; fill: #c44536; fill-rule: nonzero; opacity: 1;"
			cx="0" cy="0" r="40" />
	</g>
	<g transform="matrix(0.98 0 0 0.98 470.09 62.01)">
		<circle
			style="stroke: #c44536; stroke-width: 8; stroke-dasharray: none; stroke-linecap: butt; stroke-dashoffset: 0; stroke-linejoin: miter; stroke-miterlimit: 4; fill: #c44536; fill-rule: nonzero; opacity: 1;"
			cx="0" cy="0" r="40" />
	</g>
	<g transform="matrix(0.98 0 0 0.98 592.1 552.64)">
		<circle
			style="stroke: #c44536; stroke-width: 8; stroke-dasharray: none; stroke-linecap: butt; stroke-dashoffset: 0; stroke-linejoin: miter; stroke-miterlimit: 4; fill: #c44536; fill-rule: nonzero; opacity: 1;"
			cx="0" cy="0" r="40" />
	</g>
</svg>
